<?xml version="1.0" encoding="UTF-8" standalone="no"?><svg width="32" height="32" viewBox="0 0 32 32" fill="none" xmlns="http://www.w3.org/2000/svg">
<path d="M15.7974 32C13.5874 32 11.5138 31.6005 9.57668 30.8015C7.6668 29.9759 5.98884 28.8439 4.54278 27.4057C3.12402 25.9409 2.00537 24.2364 1.18685 22.2921C0.395618 20.3479 0 18.2439 0 15.98C0 13.7428 0.395618 11.6654 1.18685 9.74781C2.00537 7.80358 3.12402 6.11236 4.54278 4.67416C5.98884 3.20932 7.6668 2.06409 9.57668 1.23845C11.4866 0.412817 13.5601 0 15.7974 0C17.8983 0 19.699 0.266333 21.1997 0.799C22.7276 1.33167 24.2555 2.21057 25.7834 3.4357C26.1108 3.70204 26.329 3.95505 26.4382 4.19475C26.5473 4.43446 26.6019 4.72742 26.6019 5.07366C26.6019 5.57969 26.4109 6.00582 26.0289 6.35206C25.6742 6.67166 25.2377 6.85809 24.7193 6.91136C24.2009 6.93799 23.6961 6.76488 23.205 6.39201C22.1955 5.53974 21.1451 4.88722 20.0537 4.43446C18.9897 3.98169 17.5709 3.7553 15.7974 3.7553C14.1877 3.7553 12.6734 4.07491 11.2546 4.71411C9.83588 5.35331 8.58081 6.23221 7.48945 7.35081C6.42538 8.46941 5.59322 9.77445 4.99297 11.2659C4.39272 12.7308 4.0926 14.3021 4.0926 15.98C4.0926 17.6846 4.39272 19.2826 4.99297 20.774C5.59322 22.2389 6.42538 23.5306 7.48945 24.6492C8.58081 25.7678 9.83588 26.6467 11.2546 27.2859C12.6734 27.8985 14.1877 28.2047 15.7974 28.2047C17.1889 28.2047 18.4985 27.9784 19.7263 27.5256C20.9814 27.0462 22.1819 26.3937 23.3278 25.568C23.8189 25.2218 24.2964 25.0753 24.7602 25.1286C25.2513 25.1552 25.6606 25.3417 25.988 25.6879C26.3154 26.0075 26.4791 26.4603 26.4791 27.0462C26.4791 27.6055 26.2608 28.0982 25.8243 28.5243C22.8776 30.8414 19.5353 32 15.7974 32Z" fill="#62BA2D"/>
<path d="M29.254 21.0442C25.5897 25.8153 17.7654 24.2051 12.7476 24.4358C12.7476 24.4358 11.8586 24.4851 10.9652 24.6287C10.9652 24.6287 11.3036 24.488 11.7354 24.3415C15.2587 23.1505 16.9239 22.9112 19.0655 21.8363C23.0875 19.8228 27.0916 15.4347 27.9064 10.8768C26.3748 15.2606 21.7176 19.0337 17.4775 20.5655C14.576 21.6129 9.32523 22.6312 9.32523 22.6312C9.25391 22.5955 9.18316 22.5588 9.113 22.521C5.5437 20.8237 5.43981 13.266 11.9239 10.8304C14.7675 9.76271 17.4849 10.3488 20.5585 9.63361C23.8354 8.87203 27.6318 6.47124 29.1738 3.33209C30.9028 8.34835 32.9806 16.1933 29.254 21.0442ZM29.3163 1.77992C28.9018 2.75147 28.3712 3.67175 27.7357 4.5216C26.3543 3.12994 24.7009 2.02365 22.8738 1.26837C21.0466 0.513081 19.0829 0.124188 17.099 0.124756C8.90226 0.124756 2.2356 6.64097 2.2356 14.6513C2.23464 16.6495 2.65674 18.6262 3.47534 20.4571C4.29394 22.288 5.49134 23.9336 6.9922 25.2902L7.3187 25.5716C7.08072 25.3386 6.94714 25.0228 6.94735 24.6935C6.94756 24.3643 7.08153 24.0486 7.31981 23.8159C7.5581 23.5832 7.88118 23.4525 8.21802 23.4526C8.55486 23.4527 8.87788 23.5835 9.11607 23.8163C9.35425 24.0491 9.48809 24.3648 9.48816 24.6941C9.48823 25.0233 9.35452 25.3391 9.11644 25.572C8.87835 25.8049 8.55538 25.9359 8.21854 25.9361C7.8817 25.9363 7.55857 25.8057 7.32019 25.5731L7.54132 25.7646C10.2133 27.9726 13.6001 29.1826 17.099 29.1793C24.9322 29.1793 31.3659 23.2202 31.9165 15.7001C32.3231 12.017 31.21 7.34017 29.3163 1.77992Z" fill="#62BA2D"/>
</svg>
