<?xml version="1.0" encoding="UTF-8" standalone="no"?><svg width="150" height="29" viewBox="0 0 150 29" fill="none" xmlns="http://www.w3.org/2000/svg">
<path d="M14.9372 27.8038C13.1311 27.8038 11.4365 27.4693 9.85337 26.8004C8.29256 26.1092 6.92128 25.1615 5.73952 23.9575C4.58006 22.7311 3.66587 21.3041 2.99696 19.6764C2.35033 18.0487 2.02702 16.2872 2.02702 14.3919C2.02702 12.519 2.35033 10.7798 2.99696 9.17436C3.66587 7.54666 4.58006 6.13078 5.73952 4.92673C6.92128 3.70037 8.29256 2.74159 9.85337 2.05037C11.4142 1.35916 13.1088 1.01355 14.9372 1.01355C16.6541 1.01355 18.1257 1.23652 19.352 1.68247C20.6007 2.12841 21.8493 2.86422 23.098 3.8899C23.3655 4.11287 23.5439 4.3247 23.6331 4.52537C23.7223 4.72605 23.7669 4.97132 23.7669 5.26118C23.7669 5.68483 23.6108 6.04159 23.2986 6.33145C23.0088 6.59902 22.652 6.7551 22.2284 6.7997C21.8047 6.82199 21.3922 6.67706 20.9909 6.3649C20.1659 5.65139 19.3074 5.1051 18.4155 4.72605C17.5459 4.347 16.3865 4.15747 14.9372 4.15747C13.6216 4.15747 12.3841 4.42504 11.2247 4.96017C10.0652 5.49531 9.03952 6.23112 8.14763 7.1676C7.27804 8.10409 6.59797 9.19666 6.10743 10.4453C5.61689 11.6717 5.37162 12.9872 5.37162 14.3919C5.37162 15.819 5.61689 17.1568 6.10743 18.4054C6.59797 19.6318 7.27804 20.7132 8.14763 21.6497C9.03952 22.5862 10.0652 23.322 11.2247 23.8571C12.3841 24.37 13.6216 24.6264 14.9372 24.6264C16.0743 24.6264 17.1446 24.4369 18.148 24.0578C19.1736 23.6565 20.1547 23.1102 21.0912 22.419C21.4926 22.1291 21.8828 22.0065 22.2618 22.0511C22.6632 22.0733 22.9976 22.2294 23.2652 22.5193C23.5328 22.7869 23.6666 23.1659 23.6666 23.6565C23.6666 24.1247 23.4882 24.5372 23.1314 24.894C20.7233 26.8338 17.9919 27.8038 14.9372 27.8038Z" fill="#62BA2D"/>
<path d="M31.9797 27.5027C31.4892 27.5027 31.0767 27.3467 30.7422 27.0345C30.4301 26.7 30.274 26.2875 30.274 25.797V10.8801C30.274 10.3673 30.4301 9.95477 30.7422 9.6426C31.0767 9.33044 31.4892 9.17436 31.9797 9.17436C32.4926 9.17436 32.9051 9.33044 33.2172 9.6426C33.5294 9.95477 33.6855 10.3673 33.6855 10.8801V11.248C34.3767 10.5568 35.2128 10.0105 36.1939 9.60916C37.175 9.20781 38.2341 9.00713 39.3713 9.00713C40.9098 9.00713 42.2811 9.34159 43.4851 10.0105C44.7115 10.6571 45.6703 11.6159 46.3615 12.8869C47.075 14.1578 47.4318 15.7186 47.4318 17.5693V25.797C47.4318 26.2875 47.2645 26.7 46.9301 27.0345C46.6179 27.3467 46.2166 27.5027 45.726 27.5027C45.2355 27.5027 44.823 27.3467 44.4885 27.0345C44.1764 26.7 44.0203 26.2875 44.0203 25.797V17.5693C44.0203 15.674 43.5074 14.2916 42.4818 13.422C41.4784 12.5301 40.2186 12.0842 38.7024 12.0842C37.7659 12.0842 36.9186 12.2737 36.1605 12.6527C35.4024 13.0318 34.8003 13.5446 34.3544 14.1913C33.9085 14.8156 33.6855 15.5402 33.6855 16.3652V25.797C33.6855 26.2875 33.5294 26.7 33.2172 27.0345C32.9051 27.3467 32.4926 27.5027 31.9797 27.5027ZM31.9797 20.8136C31.4892 20.8136 31.0767 20.6575 30.7422 20.3453C30.4301 20.0108 30.274 19.5983 30.274 19.1078V3.05375C30.274 2.54091 30.4301 2.12841 30.7422 1.81625C31.0767 1.50409 31.4892 1.34801 31.9797 1.34801C32.4926 1.34801 32.9051 1.50409 33.2172 1.81625C33.5294 2.12841 33.6855 2.54091 33.6855 3.05375V19.1078C33.6855 19.5983 33.5294 20.0108 33.2172 20.3453C32.9051 20.6575 32.4926 20.8136 31.9797 20.8136Z" fill="#62BA2D"/>
<path d="M58.0548 27.6031C56.4271 27.6031 54.9666 27.2017 53.6734 26.399C52.3801 25.574 51.3544 24.4703 50.5963 23.0879C49.8605 21.6831 49.4926 20.1 49.4926 18.3386C49.4926 16.5771 49.894 14.994 50.6967 13.5892C51.5217 12.1845 52.6254 11.0808 54.0078 10.2781C55.4125 9.45308 56.9845 9.04058 58.7237 9.04058C60.4629 9.04058 62.0237 9.45308 63.4061 10.2781C64.7886 11.0808 65.8811 12.1845 66.6838 13.5892C67.5088 14.994 67.9213 16.5771 67.9213 18.3386V25.797C67.9213 26.2875 67.7541 26.7 67.4196 27.0345C67.1075 27.3467 66.7061 27.5027 66.2156 27.5027C65.725 27.5027 65.3125 27.3467 64.9781 27.0345C64.6659 26.7 64.5098 26.2875 64.5098 25.797V24.5595C63.7294 25.496 62.7818 26.2429 61.6669 26.8004C60.5744 27.3355 59.3703 27.6031 58.0548 27.6031ZM58.7237 24.5929C59.8609 24.5929 60.8754 24.3254 61.7673 23.7902C62.6592 23.2328 63.3615 22.4858 63.8744 21.5494C64.3872 20.5906 64.6436 19.5203 64.6436 18.3386C64.6436 17.1345 64.3872 16.0642 63.8744 15.1277C63.3615 14.169 62.6592 13.422 61.7673 12.8869C60.8754 12.3294 59.8609 12.0507 58.7237 12.0507C57.6088 12.0507 56.5943 12.3294 55.6801 12.8869C54.7882 13.422 54.0747 14.169 53.5396 15.1277C53.0267 16.0642 52.7703 17.1345 52.7703 18.3386C52.7703 19.5203 53.0267 20.5906 53.5396 21.5494C54.0747 22.4858 54.7882 23.2328 55.6801 23.7902C56.5943 24.3254 57.6088 24.5929 58.7237 24.5929Z" fill="#62BA2D"/>
<path d="M72.0286 27.5027C71.5381 27.5027 71.1256 27.3467 70.7911 27.0345C70.479 26.7 70.3229 26.2875 70.3229 25.797V10.8801C70.3229 10.3673 70.479 9.95477 70.7911 9.6426C71.1256 9.33044 71.5381 9.17436 72.0286 9.17436C72.5415 9.17436 72.954 9.33044 73.2661 9.6426C73.5783 9.95477 73.7344 10.3673 73.7344 10.8801V11.248C74.4256 10.5568 75.2618 10.0105 76.2428 9.60916C77.2239 9.20781 78.283 9.00713 79.4202 9.00713C80.9587 9.00713 82.33 9.34159 83.534 10.0105C84.7604 10.6571 85.7192 11.6159 86.4104 12.8869C87.1239 14.1578 87.4807 15.7186 87.4807 17.5693V25.797C87.4807 26.2875 87.3134 26.7 86.979 27.0345C86.6668 27.3467 86.2655 27.5027 85.7749 27.5027C85.2844 27.5027 84.8719 27.3467 84.5374 27.0345C84.2253 26.7 84.0692 26.2875 84.0692 25.797V17.5693C84.0692 15.674 83.5564 14.2916 82.5307 13.422C81.5273 12.5301 80.2675 12.0842 78.7513 12.0842C77.8148 12.0842 76.9675 12.2737 76.2094 12.6527C75.4513 13.0318 74.8493 13.5446 74.4033 14.1913C73.9574 14.8156 73.7344 15.5402 73.7344 16.3652V25.797C73.7344 26.2875 73.5783 26.7 73.2661 27.0345C72.954 27.3467 72.5415 27.5027 72.0286 27.5027Z" fill="#62BA2D"/>
<path d="M98.7399 27.6031C97.0008 27.6031 95.4288 27.2017 94.0241 26.399C92.6416 25.574 91.5379 24.4592 90.7129 23.0544C89.9102 21.6497 89.5089 20.0666 89.5089 18.3051C89.5089 16.5436 89.8768 14.9717 90.6126 13.5892C91.3707 12.1845 92.3964 11.0808 93.6896 10.2781C94.9828 9.45308 96.4433 9.04058 98.071 9.04058C99.3866 9.04058 100.602 9.31929 101.717 9.87673C102.831 10.4119 103.768 11.1477 104.526 12.0842V3.05375C104.526 2.54091 104.682 2.12841 104.994 1.81625C105.329 1.50409 105.741 1.34801 106.232 1.34801C106.745 1.34801 107.157 1.50409 107.469 1.81625C107.781 2.12841 107.938 2.54091 107.938 3.05375V18.3051C107.938 20.0666 107.525 21.6497 106.7 23.0544C105.897 24.4592 104.805 25.574 103.422 26.399C102.04 27.2017 100.479 27.6031 98.7399 27.6031ZM98.7399 24.5929C99.8771 24.5929 100.892 24.3254 101.784 23.7902C102.675 23.2328 103.378 22.4747 103.891 21.5159C104.403 20.5571 104.66 19.4869 104.66 18.3051C104.66 17.101 104.403 16.0308 103.891 15.0943C103.378 14.1578 102.675 13.422 101.784 12.8869C100.892 12.3294 99.8771 12.0507 98.7399 12.0507C97.6251 12.0507 96.6105 12.3294 95.6964 12.8869C94.8045 13.422 94.091 14.1578 93.5558 15.0943C93.043 16.0308 92.7866 17.101 92.7866 18.3051C92.7866 19.4869 93.043 20.5571 93.5558 21.5159C94.091 22.4747 94.8045 23.2328 95.6964 23.7902C96.6105 24.3254 97.6251 24.5929 98.7399 24.5929Z" fill="#62BA2D"/>
<path d="M115.634 27.4693C114.653 27.4693 113.784 27.2017 113.026 26.6666C112.267 26.1315 111.677 25.4068 111.253 24.4926C110.829 23.5561 110.617 22.4858 110.617 21.2818V3.02031C110.617 2.52977 110.774 2.12841 111.086 1.81625C111.398 1.50409 111.799 1.34801 112.29 1.34801C112.78 1.34801 113.182 1.50409 113.494 1.81625C113.806 2.12841 113.962 2.52977 113.962 3.02031V21.2818C113.962 22.1068 114.118 22.7869 114.43 23.322C114.742 23.8571 115.144 24.1247 115.634 24.1247H116.47C116.916 24.1247 117.273 24.2808 117.541 24.5929C117.831 24.9051 117.976 25.3065 117.976 25.797C117.976 26.2875 117.764 26.6889 117.34 27.0011C116.916 27.3132 116.37 27.4693 115.701 27.4693H115.634Z" fill="#62BA2D"/>
<path d="M126.221 27.6031C124.37 27.6031 122.72 27.2129 121.271 26.4325C119.844 25.6298 118.718 24.5372 117.893 23.1548C117.09 21.75 116.689 20.1446 116.689 18.3386C116.689 16.5102 117.068 14.9048 117.826 13.5223C118.606 12.1176 119.677 11.025 121.037 10.2446C122.397 9.44193 123.958 9.04058 125.719 9.04058C127.459 9.04058 128.952 9.43078 130.201 10.2112C131.45 10.9693 132.397 12.0284 133.044 13.3885C133.713 14.7264 134.047 16.2761 134.047 18.0375C134.047 18.4612 133.902 18.8179 133.613 19.1078C133.323 19.3754 132.955 19.5092 132.509 19.5092H119.799C120.045 21.0477 120.747 22.3075 121.906 23.2886C123.088 24.2473 124.526 24.7267 126.221 24.7267C126.912 24.7267 127.615 24.6041 128.328 24.3588C129.064 24.0913 129.655 23.7902 130.101 23.4558C130.435 23.2105 130.792 23.0879 131.171 23.0879C131.572 23.0656 131.918 23.1771 132.208 23.4223C132.587 23.7568 132.788 24.1247 132.81 24.5261C132.832 24.9274 132.654 25.273 132.275 25.5629C131.517 26.1649 130.569 26.6554 129.432 27.0345C128.317 27.4136 127.247 27.6031 126.221 27.6031ZM125.719 11.9169C124.069 11.9169 122.743 12.374 121.739 13.2882C120.736 14.2024 120.1 15.3842 119.833 16.8335H130.97C130.77 15.4065 130.223 14.2358 129.331 13.3217C128.44 12.3852 127.236 11.9169 125.719 11.9169Z" fill="#62BA2D"/>
<path d="M137.395 27.4693C136.28 27.4693 135.723 26.9119 135.723 25.797V10.8467C135.723 9.73179 136.28 9.17436 137.395 9.17436C138.51 9.17436 139.067 9.73179 139.067 10.8467V11.4821C139.736 10.7017 140.55 10.0886 141.509 9.6426C142.49 9.19666 143.549 8.97368 144.686 8.97368C146.024 8.97368 147.016 9.19666 147.663 9.6426C148.332 10.0663 148.588 10.5791 148.432 11.1811C148.321 11.6494 148.098 11.9615 147.763 12.1176C147.429 12.2514 147.039 12.2737 146.593 12.1845C145.166 11.8946 143.884 11.8723 142.746 12.1176C141.609 12.3629 140.706 12.82 140.037 13.4889C139.391 14.1578 139.067 15.0051 139.067 16.0308V25.797C139.067 26.9119 138.51 27.4693 137.395 27.4693Z" fill="#62BA2D"/>
<path d="M26.0208 18.6316C23.0262 22.6259 16.632 21.2779 12.5313 21.471C12.5313 21.471 11.8048 21.5123 11.0746 21.6325C11.0746 21.6325 11.3512 21.5147 11.7041 21.392C14.5834 20.395 15.9443 20.1946 17.6944 19.2947C20.9813 17.609 24.2536 13.9353 24.9195 10.1195C23.6678 13.7895 19.8618 16.9483 16.3967 18.2308C14.0255 19.1076 9.73441 19.9602 9.73441 19.9602C9.67612 19.9303 9.6183 19.8995 9.56097 19.8679C6.64402 18.447 6.55912 12.1197 11.8581 10.0806C14.182 9.18676 16.4027 9.6774 18.9146 9.07867C21.5926 8.44108 24.6951 6.43116 25.9553 3.80308C27.3683 8.00267 29.0663 14.5704 26.0208 18.6316ZM26.0717 2.50361C25.7329 3.31699 25.2994 4.08744 24.78 4.79893C23.651 3.63384 22.2999 2.70766 20.8067 2.07534C19.3135 1.44302 17.7086 1.11744 16.0874 1.11792C9.38874 1.11792 3.94055 6.57325 3.94055 13.2795C3.93976 14.9523 4.28472 16.6072 4.9537 18.14C5.62269 19.6729 6.60123 21.0505 7.82778 22.1863L8.09461 22.4219C7.90012 22.2268 7.79096 21.9624 7.79113 21.6868C7.7913 21.4111 7.90079 21.1468 8.09552 20.952C8.29025 20.7572 8.55428 20.6478 8.82956 20.6478C9.10484 20.6479 9.36882 20.7574 9.56347 20.9523C9.75812 21.1472 9.8675 21.4116 9.86756 21.6872C9.86761 21.9628 9.75835 22.2272 9.56378 22.4222C9.36921 22.6172 9.10527 22.7268 8.82999 22.727C8.55471 22.7272 8.29064 22.6178 8.09582 22.4231L8.27654 22.5834C10.4602 24.432 13.2279 25.445 16.0874 25.4422C22.4889 25.4422 27.7467 20.4533 28.1967 14.1575C28.529 11.074 27.6193 7.15862 26.0717 2.50361Z" fill="#62BA2D"/>
</svg>
